<svg width="22" height="25" viewBox="0 0 22 25" fill="none" xmlns="http://www.w3.org/2000/svg">
<path d="M10.75 11.5C11.7884 11.5 12.8034 11.1921 13.6667 10.6152C14.5301 10.0383 15.203 9.2184 15.6004 8.25909C15.9977 7.29978 16.1017 6.24418 15.8991 5.22578C15.6966 4.20738 15.1965 3.27192 14.4623 2.53769C13.7281 1.80347 12.7926 1.30345 11.7742 1.10088C10.7558 0.898307 9.70022 1.00227 8.74091 1.39963C7.7816 1.79699 6.96166 2.4699 6.38478 3.33326C5.80791 4.19662 5.5 5.21165 5.5 6.25C5.5 6.93944 5.6358 7.62213 5.89963 8.25909C6.16347 8.89605 6.55018 9.47481 7.03769 9.96231C8.02226 10.9469 9.35761 11.5 10.75 11.5Z" stroke="#0D1144" stroke-width="1.5" stroke-linecap="round" stroke-linejoin="round"/>
<path d="M1 23.5C1 22.2196 1.25219 20.9518 1.74217 19.7688C2.23216 18.5859 2.95034 17.5111 3.85571 16.6057C4.76108 15.7003 5.83591 14.9822 7.01884 14.4922C8.20176 14.0022 9.46961 13.75 10.75 13.75C12.0304 13.75 13.2982 14.0022 14.4812 14.4922C15.6641 14.9822 16.7389 15.7003 17.6443 16.6057C18.5497 17.5111 19.2678 18.5859 19.7578 19.7688C20.2478 20.9518 20.5 22.2196 20.5 23.5" stroke="#0D1144" stroke-width="1.5" stroke-linecap="round" stroke-linejoin="round"/>
</svg>
