<svg width="24" height="25" viewBox="0 0 24 25" fill="none" xmlns="http://www.w3.org/2000/svg">
<path d="M8.3862 17.7464L5.36274 22.9914C2.13271 20.8378 0 17.1596 0 12.9809C0 6.59745 4.97446 1.39019 11.2501 1V7.04773C8.29843 7.42182 6.00003 9.92488 6.00003 12.9809C6.00003 14.9306 6.94628 16.649 8.3862 17.7464ZM16.758 9.3614L21.9947 6.33316C19.9747 3.29319 16.6084 1.23922 12.7499 1.00013V7.04786C14.3847 7.25461 15.8059 8.10987 16.758 9.3614ZM22.7374 7.63903L17.5298 10.6512C17.8315 11.367 17.9999 12.1549 17.9999 12.9809C17.9999 16.2952 15.309 18.9904 11.9999 18.9904C11.1752 18.9904 10.3885 18.823 9.67372 18.5194L6.66634 23.7352C8.27482 24.5377 10.0809 25 11.9999 25C18.627 25 24 19.6185 24 12.9809C24 11.0591 23.5386 9.2501 22.7374 7.63903Z" fill="#0D1144"/>
<g clip-path="url(#clip0_171_13)">
<path d="M16.769 10L23 6.37815C20.5966 2.74244 16.591 0.285949 12 0V7.23292C13.9449 7.48036 15.6359 8.503 16.769 10Z" fill="#71F3CB"/>
</g>
<defs>
<clipPath id="clip0_171_13">
<rect width="11" height="10" fill="white" transform="translate(12)"/>
</clipPath>
</defs>
</svg>
