<svg width="26" height="26" viewBox="0 0 26 26" fill="none" xmlns="http://www.w3.org/2000/svg">
<path d="M18.2148 15.7948V12.4649C18.2148 10.2834 17.3169 8.14858 15.7511 6.60768C14.2224 5.10341 12.2477 4.29378 10.1407 4.33552C5.85493 4.41601 2.36857 7.97931 2.36857 12.2793V15.7951C0.946026 16.4116 0 17.8172 0 19.4169V20.3467C0 21.3734 0.83331 22.209 1.8575 22.209H18.7261C19.75 22.209 20.5833 21.3734 20.5833 20.3467V19.4169C20.5836 17.8172 19.6379 16.4116 18.2148 15.7951V15.7948ZM18.8786 20.3467C18.8786 20.4311 18.8103 20.4994 18.7264 20.4994H1.85778C1.77364 20.4994 1.70497 20.4308 1.70497 20.3467V19.4169C1.70497 18.3774 2.41016 17.4816 3.41977 17.2395C3.80299 17.1474 4.07352 16.8034 4.07352 16.408V12.2792C4.07352 8.90487 6.80984 6.10835 10.1729 6.04508C10.2107 6.04418 10.2481 6.04389 10.2862 6.04389C11.8729 6.04389 13.3858 6.67498 14.5575 7.82808C15.7987 9.04914 16.5104 10.7392 16.5104 12.4649V16.408C16.5104 16.8033 16.7809 17.147 17.1642 17.2395C18.1738 17.4815 18.879 18.377 18.879 19.4168L18.8786 20.3467Z" fill="#0D1144"/>
<circle cx="18.6875" cy="7.3125" r="7.3125" fill="#71F3CB"/>
<line x1="2" y1="25" x2="17" y2="25" stroke="#08126D" stroke-width="2" stroke-linecap="round"/>
</svg>
