<svg width="28" height="28" viewBox="0 0 28 28" fill="none" xmlns="http://www.w3.org/2000/svg">
<circle cx="14" cy="14" r="14" fill="#0D1144"/>
<path d="M16.8999 18H9.93963V16.6776H16.8999V18ZM14.8118 14.0128H9.90483V12.6903H14.8118V14.0128ZM12.4006 10.831L12.5597 15.1214C12.5795 15.549 12.5249 15.9318 12.3956 16.2699C12.2663 16.6046 12.0327 16.8714 11.6946 17.0703L10.4219 16.6776C10.6009 16.6676 10.7384 16.5765 10.8345 16.4041C10.9306 16.2318 10.9953 16.0296 11.0284 15.7976C11.0616 15.5623 11.0748 15.3501 11.0682 15.1612L10.924 10.831C10.8975 10.1349 11.0268 9.55327 11.3118 9.08594C11.6001 8.61861 11.983 8.26728 12.4602 8.03196C12.9375 7.79664 13.4512 7.67898 14.0014 7.67898C14.492 7.67898 14.9328 7.76018 15.3239 7.92258C15.7183 8.08499 16.0497 8.30705 16.3182 8.58878C16.59 8.86719 16.7839 9.18537 16.8999 9.54332C17.0159 9.90128 17.0391 10.2775 16.9695 10.6719L15.5327 10.4432C15.5658 10.1184 15.5144 9.84825 15.3786 9.63281C15.2427 9.41738 15.0554 9.25497 14.8168 9.1456C14.5781 9.03622 14.3246 8.98153 14.0561 8.98153C13.7744 8.98153 13.5059 9.04782 13.2507 9.1804C12.9988 9.31297 12.7933 9.51515 12.6342 9.78693C12.4785 10.0587 12.4006 10.4067 12.4006 10.831Z" fill="#71F3CB"/>
</svg>
